# xmcd CD database file
#
# Track frame offsets:
#	150
#	31598
#	68633
#	101494
#	132188
#	166016
#	202881
#	224935
#	245175
#	292827
#
# Disc length: 4310 seconds
#
# Revision: 0
# Processed by: cddbd v1.5.2PL0 Copyright (c) Steve Scherf et al.
# Submitted via: CDex 1.51
#
DISCID=8b10d40a
DTITLE=ESSENTIAL BLUE - the classic of Hank Mobley - Commpilation by Tatsuo Sunaga - Hank Mobley
DYEAR=2007
DGENRE=Jazz
TTITLE0=No Room For Squares
TTITLE1=News
TTITLE2=Stella-Wise
TTITLE3=East Of The Village
TTITLE4=Bossa De Luxe
TTITLE5=Recado Bossa Nova
TTITLE6=Spilit Feelin's
TTITLE7=Avila And Tequila
TTITLE8=Roll Call
TTITLE9=Time After Time
EXTD=YEAR: 2007
EXTT0=
EXTT1=
EXTT2=
EXTT3=
EXTT4=
EXTT5=
EXTT6=
EXTT7=
EXTT8=
EXTT9=
PLAYORDER=
